<?xml version="1.0" standalone="no"?>
<!DOCTYPE svg PUBLIC "-//W3C//DTD SVG 20010904//EN"
 "http://www.w3.org/TR/2001/REC-SVG-20010904/DTD/svg10.dtd">
<svg version="1.0" xmlns="http://www.w3.org/2000/svg"
 width="350.000000pt" height="350.000000pt" viewBox="0 0 350.000000 350.000000"
 preserveAspectRatio="xMidYMid meet">
<metadata>
Created by potrace 1.14, written by Peter Selinger 2001-2017
</metadata>
<g transform="translate(0.000000,350.000000) scale(0.100000,-0.100000)"
fill="#000000" stroke="none">
<path d="M1711 3050 c-59 -27 -208 -131 -368 -257 -73 -57 -138 -109 -145
-116 -7 -6 -49 -43 -93 -82 -111 -97 -501 -486 -625 -625 -57 -63 -120 -133
-140 -155 -144 -158 -315 -390 -334 -452 -13 -41 1 -24 47 55 48 83 149 217
242 322 32 36 88 99 124 140 393 443 795 815 1144 1059 157 109 216 131 253
94 39 -39 -7 -215 -123 -478 -98 -220 -293 -609 -350 -696 -55 -85 -79 -136
-69 -147 10 -10 29 18 78 113 79 154 267 376 587 693 181 180 255 237 272 211
28 -40 -11 -154 -145 -431 -42 -86 -80 -168 -86 -182 -21 -55 20 -19 103 90
92 122 426 439 530 503 90 55 88 -14 -8 -255 -36 -92 -64 -169 -60 -172 8 -8
6 -10 73 158 77 195 90 251 67 286 -12 19 -21 23 -38 18 -79 -24 -498 -413
-593 -550 -21 -30 -39 -52 -41 -51 -2 2 37 87 86 188 49 101 98 211 111 244
22 60 30 140 16 163 -14 23 -54 12 -108 -30 -114 -89 -493 -485 -645 -674 -24
-30 -13 -2 46 116 113 229 202 422 249 540 84 215 98 340 42 370 -27 14 -50
12 -99 -10z"/>
<path d="M3381 2598 c-147 -40 -367 -296 -541 -632 -21 -40 -45 -61 -147 -132
-68 -46 -125 -84 -128 -84 -3 0 2 14 10 31 30 57 83 207 90 251 14 92 -50 101
-212 29 -385 -169 -709 -374 -941 -594 -29 -27 -50 -52 -48 -55 3 -2 37 25 77
62 188 174 440 341 724 480 262 128 344 158 371 135 28 -23 15 -87 -56 -257
l-43 -103 -81 -56 c-353 -247 -453 -328 -647 -522 -270 -271 -408 -458 -453
-612 -25 -84 -6 -120 62 -119 77 1 296 116 402 211 239 214 339 355 602 848
53 101 103 196 109 210 8 17 58 57 135 109 68 45 124 80 124 77 0 -3 -6 -16
-14 -28 -73 -112 -440 -861 -433 -881 3 -6 28 41 58 104 60 130 327 660 384
763 32 59 48 75 122 125 211 142 406 292 477 367 45 47 105 144 112 180 14 76
-34 115 -115 93z m76 -16 c25 -16 31 -56 15 -97 -45 -117 -187 -249 -499 -463
l-133 -91 20 39 c36 70 141 243 197 323 133 189 331 333 400 289z m-1002
-1009 c-32 -59 -68 -126 -80 -148 -12 -22 -38 -69 -57 -105 -127 -236 -259
-431 -365 -541 -163 -170 -305 -269 -456 -320 -135 -46 -164 -15 -111 118 94
234 441 616 814 894 143 107 304 218 309 214 2 -2 -23 -52 -54 -112z"/>
</g>
</svg>
